<?xml version="1.0" standalone="no"?>
<!DOCTYPE svg PUBLIC "-//W3C//DTD SVG 20010904//EN"
 "http://www.w3.org/TR/2001/REC-SVG-20010904/DTD/svg10.dtd">
<svg version="1.0" xmlns="http://www.w3.org/2000/svg"
 width="740.000000pt" height="740.000000pt" viewBox="0 0 740.000000 740.000000"
 preserveAspectRatio="xMidYMid meet">

<g transform="translate(0.000000,740.000000) scale(0.100000,-0.100000)"
fill="#000000" stroke="none">
<path d="M2524 5747 c-2 -7 27 -157 66 -333 39 -175 71 -325 73 -333 1 -9 -15
-18 -48 -26 -68 -15 -146 -59 -204 -115 -143 -137 -110 -257 59 -213 137 35
280 170 280 263 0 20 -29 166 -64 325 -35 160 -63 292 -60 294 10 10 86 -53
139 -116 149 -174 194 -208 282 -219 l48 -6 -35 22 c-66 41 -122 105 -215 245
-94 143 -137 187 -204 211 -48 17 -110 18 -117 1z"/>
<path d="M1752 5558 c-16 -20 -6 -28 33 -28 48 0 87 -46 140 -167 l46 -105
-35 -38 c-43 -48 -60 -106 -51 -174 16 -120 125 -385 159 -386 23 0 22 3 -43
150 -95 218 -104 320 -32 384 21 19 22 19 37 -2 26 -37 52 -46 80 -27 33 21
46 58 33 91 -9 25 -12 26 -63 21 l-53 -5 -42 104 c-53 128 -98 183 -156 191
-29 3 -44 1 -53 -9z m338 -327 c0 -4 -6 -16 -14 -26 -12 -16 -16 -17 -30 -6
-23 19 -20 39 7 43 24 4 37 1 37 -11z"/>
<path d="M4444 5471 c-77 -19 -143 -91 -144 -156 0 -42 23 -100 51 -128 28
-28 29 -32 18 -66 -6 -20 -21 -46 -32 -59 -26 -28 -11 -50 21 -33 19 10 52 77
52 106 0 10 10 15 31 15 51 0 69 16 69 60 0 40 -20 70 -46 70 -17 0 -64 -44
-64 -60 0 -24 -29 -7 -45 26 -32 68 -2 149 65 176 14 6 54 13 90 17 48 4 65
10 65 21 0 17 -78 24 -131 11z m30 -247 c8 -21 -1 -34 -25 -34 -22 0 -23 4 -9
31 13 23 26 24 34 3z"/>
<path d="M3644 5215 c-5 -52 -6 -95 -2 -95 6 0 170 69 175 74 3 3 -151 116
-159 116 -2 0 -8 -43 -14 -95z"/>
<path d="M4905 5158 c-4 -15 -382 -1652 -391 -1698 l-6 -30 216 0 216 0 53 35
c107 71 234 96 355 71 383 -80 520 -549 238 -814 -131 -122 -304 -163 -468
-112 -34 11 -64 20 -65 20 -2 0 -3 -137 -3 -304 l0 -305 113 -67 c61 -37 121
-73 132 -81 17 -11 -4 -13 -138 -13 l-157 0 0 760 0 760 -1120 0 -1120 0 -2
-757 -3 -758 -105 -2 -105 -2 29 22 c16 12 52 40 80 63 l51 40 3 468 2 468
-224 481 c-124 265 -230 503 -237 529 -17 69 -8 167 18 203 16 23 74 55 247
135 124 57 226 108 226 112 0 5 -7 25 -15 44 -13 31 -19 35 -37 30 -62 -18
-131 -26 -208 -24 l-85 3 -145 -71 c-168 -81 -229 -134 -283 -243 -28 -58 -32
-75 -32 -151 0 -81 2 -90 50 -189 47 -99 48 -104 30 -117 -26 -19 -32 -18 -46
9 -6 12 -13 23 -14 25 -4 4 -75 -26 -75 -32 0 -2 21 -47 46 -99 l46 -95 31 13
c32 13 38 31 23 65 -4 11 2 19 22 26 l29 11 38 -84 c21 -46 36 -85 34 -87 -2
-2 -14 -9 -27 -15 -19 -10 -23 -9 -34 14 -6 14 -15 25 -19 25 -7 0 -57 -20
-67 -26 -2 -1 17 -47 43 -103 l47 -100 35 17 c34 16 35 22 19 63 -5 11 1 19
20 28 15 6 28 10 30 8 6 -6 74 -158 74 -166 0 -4 -11 -13 -25 -19 -23 -11 -27
-9 -37 16 -7 15 -13 28 -14 30 -2 3 -63 -25 -72 -33 -4 -4 86 -195 93 -195 10
0 65 30 65 36 0 3 -5 15 -11 26 -9 18 -8 24 7 35 10 7 23 13 29 13 7 0 29 -37
50 -81 37 -78 37 -82 20 -95 -26 -19 -34 -18 -47 11 -6 14 -15 25 -20 25 -10
0 -68 -29 -68 -34 0 -2 20 -47 45 -99 l46 -96 35 17 c35 16 37 22 20 63 -5 12
0 19 22 27 28 10 29 9 56 -52 38 -89 42 -125 18 -179 -48 -108 -199 -117 -274
-16 -10 13 -122 247 -249 519 -127 272 -234 499 -238 503 -7 7 -645 -283 -665
-303 -5 -5 107 -250 274 -599 312 -650 333 -687 459 -781 l74 -55 -117 -6
c-160 -9 -234 -19 -216 -29 24 -13 346 -30 780 -40 525 -13 2498 -13 3020 0
939 23 1058 54 297 79 -130 4 -240 10 -243 13 -3 3 110 206 252 449 141 244
381 658 532 919 151 261 322 555 379 653 57 98 105 183 106 187 2 7 -1643
1047 -1723 1090 -15 8 -21 8 -25 -2z m849 -892 c109 -54 171 -153 171 -276 0
-123 -59 -219 -170 -278 -43 -23 -62 -27 -135 -26 -72 0 -93 4 -135 26 -134
70 -202 221 -161 359 54 187 258 279 430 195z m-2639 -1343 l0 -333 68 0 67 0
-2 -202 -3 -203 -65 -5 -65 -5 0 -145 0 -145 -32 -3 -33 -3 0 150 0 151 -65 0
-65 0 0 205 0 205 65 0 65 0 0 336 0 335 33 -3 32 -3 0 -332z m395 117 l0
-220 65 0 65 0 0 -205 0 -205 -65 0 -65 0 0 -265 0 -265 -30 0 -30 0 0 265 0
265 -65 0 -65 0 0 205 0 205 65 0 65 0 0 220 0 220 30 0 30 0 0 -220z m400 50
l0 -170 65 0 65 0 0 -205 0 -205 -65 0 -65 0 0 -315 0 -315 -30 0 -30 0 0 315
0 315 -65 0 -65 0 0 205 0 205 65 0 65 0 0 170 0 170 30 0 30 0 0 -170z m400
-155 l0 -325 65 0 65 0 0 -205 0 -205 -65 0 -65 0 0 -161 0 -160 -32 3 -32 3
1 157 2 157 -67 3 -67 3 0 200 0 200 67 5 67 5 0 315 c0 173 0 318 1 323 0 4
14 7 30 7 l30 0 0 -325z m398 238 l3 -83 64 0 65 0 0 -205 0 -205 -65 0 -65 0
0 -401 0 -400 -32 3 -33 3 -3 398 -2 397 -65 0 -65 0 0 205 0 205 65 0 65 0 0
78 c0 43 3 82 7 86 4 4 19 6 33 4 24 -3 25 -6 28 -85z"/>
<path d="M4406 4887 c-28 -50 -42 -66 -55 -63 -29 9 -106 26 -119 26 -8 0 9
-26 37 -58 45 -52 49 -61 37 -78 -7 -10 -25 -40 -40 -67 l-28 -47 23 9 c13 5
46 19 73 30 l50 22 52 -58 53 -58 -6 80 -5 80 72 30 73 30 -81 19 -82 18 -1
47 c-1 25 -4 60 -8 76 -7 30 -7 29 -45 -38z"/>
<path d="M3528 4774 c-57 -20 -102 -58 -134 -116 -26 -49 -29 -63 -32 -175
l-4 -123 129 0 c137 0 161 -7 142 -42 -9 -16 -24 -18 -139 -18 l-130 0 0 -35
0 -34 133 -3 132 -3 0 -25 0 -25 -132 -3 -133 -3 0 -34 0 -35 130 0 c115 0
130 -2 139 -18 19 -35 -5 -42 -142 -42 l-129 0 7 -32 c21 -96 102 -179 196
-201 22 -6 28 -14 33 -47 9 -60 35 -80 104 -81 41 0 51 -3 37 -9 -11 -5 -32
-9 -47 -9 l-28 -1 0 -115 0 -115 75 0 75 0 0 121 0 120 30 26 c17 14 30 35 30
47 0 21 -8 24 -92 38 l-93 15 96 2 c130 1 189 20 248 79 28 29 51 63 59 88 23
77 27 74 -117 74 -110 0 -130 2 -135 16 -14 37 11 44 146 44 130 0 130 0 124
23 -3 12 -6 28 -6 35 0 9 -31 12 -124 12 -98 0 -126 3 -136 15 -10 12 -10 18
0 30 10 12 38 15 136 15 93 0 124 3 124 13 0 6 3 22 6 35 6 22 6 22 -124 22
-135 0 -160 7 -146 43 5 14 28 17 136 19 l130 3 -1 119 c-2 132 -11 162 -62
221 -34 38 -125 89 -142 78 -4 -3 -8 -55 -7 -117 2 -153 4 -146 -24 -146 -13
0 -26 6 -29 14 -3 8 -5 69 -4 135 l2 121 -37 0 -37 0 -3 -132 -3 -133 -25 0
-25 0 -3 133 -3 132 -34 0 -34 0 -3 -132 -3 -133 -25 0 -25 0 -5 131 -5 131
-37 -13z"/>
<path d="M1483 4702 l-233 -46 0 -258 0 -258 -29 0 c-16 0 -58 -9 -93 -20
-144 -44 -219 -147 -138 -190 67 -36 256 35 295 111 12 22 15 80 15 294 0 146
2 265 4 265 5 0 305 64 354 75 l22 5 0 -224 0 -224 -52 -4 c-112 -9 -238 -93
-238 -157 0 -42 24 -56 90 -54 75 1 168 42 215 94 l35 39 0 300 c0 165 -3 299
-7 299 -5 -1 -113 -22 -240 -47z"/>
<path d="M2860 3716 c-58 -11 -107 -21 -109 -22 -5 -4 140 -169 147 -167 8 3
73 185 70 198 -2 7 -38 4 -108 -9z"/>
<path d="M6490 3641 c0 -16 8 -20 42 -23 36 -3 47 -9 74 -44 17 -23 48 -83 68
-134 l37 -93 -29 -31 c-16 -17 -35 -41 -41 -53 -18 -36 -13 -154 10 -229 30
-98 116 -278 134 -282 23 -5 18 19 -25 112 -95 207 -117 324 -75 393 26 44 43
48 71 18 27 -29 64 -32 86 -7 34 38 34 96 0 106 -9 3 -34 1 -55 -3 -36 -9 -39
-7 -49 17 -6 15 -33 73 -60 130 -54 114 -84 142 -150 142 -31 0 -38 -4 -38
-19z m340 -313 c0 -28 -19 -43 -37 -32 -24 15 -27 32 -6 37 33 8 43 7 43 -5z"/>
<path d="M727 3576 c-43 -74 -45 -74 -140 -51 l-57 13 42 -50 c24 -27 47 -55
52 -62 6 -9 -3 -33 -27 -73 -21 -34 -37 -63 -37 -66 0 -3 32 9 70 26 l71 31
52 -59 53 -59 -7 75 c-4 41 -5 77 -3 80 2 4 33 19 69 35 73 31 72 35 -22 54
l-61 12 -9 80 -8 80 -38 -66z"/>
<path d="M6297 2878 c-21 -159 -21 -151 4 -143 13 5 55 22 93 39 l69 31 -76
58 c-42 31 -78 57 -81 57 -2 0 -6 -19 -9 -42z"/>
<path d="M1139 2570 c-124 -21 -190 -110 -159 -213 6 -23 25 -56 41 -73 29
-30 29 -30 14 -74 -9 -24 -23 -52 -32 -62 -14 -16 -14 -18 2 -24 23 -9 50 23
66 76 10 32 17 39 46 43 49 8 63 24 63 68 0 52 -30 75 -71 53 -16 -8 -29 -18
-29 -22 0 -5 -6 -17 -14 -27 -13 -18 -15 -17 -35 15 -46 76 -13 162 74 192 28
9 71 17 98 18 51 0 67 22 25 34 -26 7 -26 7 -89 -4z m9 -262 c2 -10 -6 -19
-18 -23 -28 -9 -34 -2 -20 25 13 23 33 22 38 -2z"/>
<path d="M5992 2390 c-18 -33 -36 -61 -40 -63 -4 -3 -40 3 -79 13 -40 9 -73
15 -73 12 0 -3 23 -29 50 -58 l51 -54 -17 -32 c-9 -18 -28 -50 -41 -70 -13
-21 -21 -38 -19 -38 2 0 35 14 73 31 l68 31 54 -59 54 -58 -7 78 -7 77 73 34
73 33 -60 12 c-33 7 -67 14 -76 17 -19 5 -29 45 -29 110 0 24 -3 44 -8 44 -4
0 -22 -27 -40 -60z"/>
</g>
</svg>
